<?xml version="1.0" encoding="UTF-8"?>
<svg id="_레이어_1" data-name="레이어 1" xmlns="http://www.w3.org/2000/svg" viewBox="0 0 15.92 15.92">
  <defs>
    <style>
      .cls-1 {
        fill: none;
      }

      .cls-1, .cls-2, .cls-3 {
        stroke-width: 0px;
      }

      .cls-2 {
        fill: #fa0033;
      }

      .cls-3 {
        fill: #fe0064;
      }
    </style>
  </defs>
  <g>
    <path class="cls-2" d="M8.74,7.9c-.23.07-.46.12-.7.11-.24,0-.48-.02-.72-.08-.06-.01-.06,0-.07.05-.1,1.29-.34,2.55-.66,3.8-.16.63-.36,1.24-.68,1.81-.13.23-.27.45-.4.67-.04.07-.12.09-.19.09-.31.01-.58-.1-.84-.25-.29-.17-.52-.41-.75-.65-.23-.24-.47-.48-.73-.69-.38-.31-.82-.47-1.3-.54-.16-.02-.33-.04-.49-.1-.3-.11-.54-.32-.78-.51-.07-.05-.07-.15-.01-.24.17-.28.34-.57.57-.81.19-.21.37-.43.56-.65.04-.04.04-.07,0-.11-.48-.52-.74-1.13-.83-1.82-.03-.25-.06-.5-.07-.75-.02-.4.05-.79.17-1.18.02-.06.02-.1-.02-.15-.14-.21-.28-.42-.4-.64-.22-.43-.26-.9-.25-1.38,0-.28.05-.55.14-.81.1-.31.27-.57.51-.78.23-.2.51-.28.8-.31.44-.04.87.05,1.31.1,1.33.17,2.47.78,3.54,1.54.32.22.59.49.82.8.04.05.07.06.14.04.36-.12.71-.09,1.07.01.03,0,.06.03.1-.01.29-.41.67-.73,1.08-1.01.73-.5,1.51-.92,2.36-1.18.46-.14.94-.2,1.41-.27.27-.04.54-.06.82-.04.71.03,1.13.43,1.36,1.06.17.45.18.92.14,1.39-.04.53-.28.97-.57,1.39-.08.12-.1.21-.05.35.19.57.17,1.16.09,1.75-.02.15-.05.3-.08.45-.12.57-.4,1.06-.79,1.49-.14.16-.29.31-.48.41-.04.02-.04.04-.02.08.12.28.28.53.45.78.1.14.17.31.26.46.03.06.02.12-.01.17-.27.41-.54.82-.87,1.18-.44.48-.99.78-1.62.91-.3.06-.6.07-.89.11-.24.03-.46.09-.65.24-.05.04-.08.09-.13.13-.1.11-.21.1-.29-.02-.34-.52-.65-1.05-.8-1.66-.16-.63-.35-1.25-.44-1.9-.11-.85-.19-1.7-.09-2.56.01-.09,0-.18,0-.27Z"/>
    <path class="cls-3" d="M14.92,5.65c-.13-.24-.32-.43-.53-.59-.11-.08-.22-.04-.24.08,0,.04,0,.07.03.09.07.06.13.12.2.18.25.2.38.48.47.78.11.35.16.7.14,1.06-.02.44-.07.87-.2,1.29-.11.37-.3.7-.56.99-.12.14-.24.28-.39.39-.33.24-.68.32-1.08.26-.27-.04-.54-.1-.8-.2-.36-.14-.7-.31-1.03-.52-.41-.27-.8-.54-1.16-.88-.26-.25-.53-.48-.73-.78-.03-.04-.04-.07,0-.11.21-.18.28-.42.32-.68.06-.35.02-.7-.02-1.05-.02-.21-.05-.42-.11-.62-.09-.27-.18-.53-.42-.7-.04-.02-.03-.04,0-.08.15-.19.32-.36.5-.52.2-.17.42-.32.64-.47.28-.18.57-.34.85-.51.33-.19.68-.32,1.03-.46.32-.12.65-.21.99-.24.21-.02.43-.07.64-.1.37-.05.74-.08,1.11.03.28.08.46.28.61.5.13.19.2.41.24.64.04.27.07.54.04.81-.02.16-.03.32-.07.48-.06.26-.19.5-.34.72-.05.07-.07.15-.14.2Z"/>
    <path class="cls-3" d="M.98,5.68c-.25-.38-.48-.75-.53-1.21-.05-.43-.03-.85.09-1.27.1-.33.28-.6.57-.79.13-.08.27-.12.42-.14.13-.02.26-.03.39-.02.21,0,.41.03.62.06.28.04.56.09.85.14.22.04.43.1.63.18.3.11.6.22.88.37.43.23.85.46,1.25.75.2.14.41.27.58.45.12.12.22.24.33.37.03.03.02.06,0,.09-.32.32-.43.73-.49,1.16-.04.29-.07.58-.07.87,0,.32.05.63.25.9.04.05.08.1.13.14.03.03.03.05,0,.09-.26.37-.59.67-.93.96-.39.34-.81.64-1.26.89-.45.26-.93.47-1.45.55-.33.05-.66.05-.96-.12-.21-.12-.39-.27-.55-.46-.14-.17-.28-.34-.39-.53-.18-.31-.3-.64-.34-1-.02-.2-.06-.39-.08-.59-.03-.41-.01-.8.1-1.2.08-.28.19-.55.39-.77.09-.09.19-.17.29-.26.07-.07.08-.14.03-.2-.04-.05-.14-.05-.21,0-.21.16-.4.34-.53.58,0,0,0,0-.02.03Z"/>
    <path class="cls-3" d="M8.99,8.19c.18.2.38.37.55.56.17.18.38.33.57.48.26.2.54.39.83.56.27.16.55.29.84.41.23.1.47.18.72.22.33.06.67.1,1-.02.05-.02.07,0,.09.04.13.35.37.63.55.95.15.26.15.19,0,.44-.15.22-.31.44-.47.65-.39.52-.9.87-1.53,1.04-.27.07-.56.1-.84.12-.37.03-.73.1-1.02.35-.03.02-.05.04-.07,0-.18-.33-.4-.63-.52-.99-.11-.32-.19-.65-.28-.98-.09-.32-.18-.65-.23-.98-.05-.29-.09-.59-.13-.89-.06-.54-.08-1.07-.07-1.61,0-.12.03-.24.03-.37Z"/>
    <path class="cls-3" d="M6.98,8.13c-.01.13-.02.26-.04.4-.04.31-.09.63-.14.94-.06.3-.11.6-.17.9-.06.29-.11.58-.18.87-.1.43-.24.86-.38,1.28-.14.43-.33.84-.56,1.23-.06.09-.12.19-.18.28-.04.05-.1.07-.15.06-.28-.06-.54-.18-.77-.36-.23-.18-.42-.39-.62-.6-.25-.25-.5-.51-.8-.71-.19-.13-.4-.23-.62-.31-.33-.11-.66-.15-1-.22-.17-.03-.31-.14-.45-.24-.07-.05-.15-.09-.22-.16-.03-.03-.03-.05,0-.08.12-.17.22-.34.34-.51.08-.11.18-.21.27-.32.13-.16.26-.31.39-.47.04-.05.05-.06.11-.01.22.18.47.32.75.37.19.04.39.03.59.02.28-.03.54-.09.8-.19.37-.14.73-.31,1.08-.52.39-.24.76-.51,1.11-.79.18-.15.33-.33.5-.5.11-.11.23-.22.33-.34Z"/>
    <path class="cls-3" d="M8.06,7.73c-.25,0-.51-.02-.75-.1-.28-.09-.42-.3-.48-.57-.07-.3-.04-.6-.02-.9.03-.33.11-.65.22-.97.06-.18.18-.31.35-.38.39-.17.78-.19,1.17,0,.25.12.38.34.44.6.06.24.1.49.11.74.01.18.04.37.03.55-.02.24-.04.49-.18.7-.14.19-.33.3-.57.32-.1,0-.21.03-.31.02Z"/>
  </g>
  <rect class="cls-1" width="15.92" height="15.92"/>
</svg>